<svg width="36" height="35" viewBox="0 0 36 35" version="1.1" xmlns="http://www.w3.org/2000/svg" xmlns:xlink="http://www.w3.org/1999/xlink" xmlns:figma="http://www.figma.com/figma/ns">
<title>logo</title>
<desc>Created using Figma</desc>
<g id="Canvas" transform="translate(-5786 0)" figma:type="canvas">
<g id="logo" figma:type="symbol">
<g id="Combined Shape" figma:type="vector-operation">
<use xlink:href="#path0_stroke" transform="translate(5789 3)" fill="#FFFFFF"/>
</g>
</g>
</g>
<defs>
<path id="path0_stroke" d="M 5.02979 0.0579882L 5.02979 -0.942012C 4.66372 -0.942012 4.3269 -0.74199 4.15172 -0.420558C 3.97654 -0.0991268 3.99099 0.292335 4.1894 0.599975L 5.02979 0.0579882ZM 14.7393 23.1752L 13.8975 23.715C 14.0771 23.9951 14.3843 24.1675 14.7169 24.175C 15.0496 24.1824 15.3642 24.0239 15.5561 23.7521L 14.7393 23.1752ZM 21.6724 13.3573L 22.4892 13.9341C 22.7057 13.6276 22.7323 13.2258 22.5582 12.8934C 22.3842 12.561 22.0387 12.354 21.6635 12.3573L 21.6724 13.3573ZM 14.6875 15.0332L 13.8471 15.5751C 14.0276 15.855 14.3357 16.0267 14.6687 16.033C 15.0017 16.0392 15.316 15.8793 15.507 15.6063L 14.6875 15.0332ZM 0 0.18975L 0.841797 -0.350044C 0.602149 -0.72377 0.144792 -0.894749 -0.28125 -0.769885C -0.707291 -0.645021 -1 -0.254213 -1 0.18975L 0 0.18975ZM 0 29L -1 29C -1 29.5523 -0.552285 30 2.22045e-16 30L 0 29ZM 4.8335 29L 4.8335 30C 5.38578 30 5.8335 29.5523 5.8335 29L 4.8335 29ZM 4.8335 13.507L 4.82461 12.5071C 4.27581 12.5119 3.8335 12.9582 3.8335 13.507L 4.8335 13.507ZM 25.2021 0L 26.2021 0C 26.2021 -0.436608 25.9189 -0.822744 25.5024 -0.95385C 25.086 -1.08496 24.6326 -0.930721 24.3825 -0.572851L 25.2021 0ZM 29.9824 0.0579882L 30.9824 0.057378C 30.9821 -0.494668 30.5345 -0.942012 29.9824 -0.942012L 29.9824 0.0579882ZM 30 28.8652L 30 29.8652C 30.2653 29.8652 30.5198 29.7597 30.7073 29.5721C 30.8949 29.3844 31.0002 29.1299 31 28.8646L 30 28.8652ZM 25.2021 28.8652L 24.2021 28.8652C 24.2021 29.4175 24.6499 29.8652 25.2021 29.8652L 25.2021 28.8652ZM 4.1894 0.599975L 12.8124 13.9706L 14.4932 12.8866L 5.87017 -0.483999L 4.1894 0.599975ZM 25.1616 -0.942012L 5.02979 -0.942012L 5.02979 1.05799L 25.1616 1.05799L 25.1616 -0.942012ZM 16.6427 13.9825L 25.9811 0.63114L 24.3422 -0.515163L 15.0038 12.8362L 16.6427 13.9825ZM 15.8144 12.4093L 13.6439 12.4286L 13.6617 14.4286L 15.8321 14.4093L 15.8144 12.4093ZM 7.67676 14.0141L 13.8975 23.715L 15.5811 22.6354L 9.36035 12.9345L 7.67676 14.0141ZM 15.5561 23.7521L 22.4892 13.9341L 20.8555 12.7805L 13.9224 22.5984L 15.5561 23.7521ZM 21.6635 12.3573L 15.8144 12.4093L 15.8321 14.4093L 21.6813 14.3573L 21.6635 12.3573ZM 15.507 15.6063L 16.6427 13.9824L 15.0038 12.8362L 13.868 14.46L 15.507 15.6063ZM 12.8124 13.9705L 13.8471 15.5751L 15.5279 14.4912L 14.4933 12.8867L 12.8124 13.9705ZM 13.6439 12.4286L 8.50966 12.4743L 8.52744 14.4742L 13.6617 14.4286L 13.6439 12.4286ZM -0.841797 0.729544L 7.67676 14.014L 9.36035 12.9345L 0.841797 -0.350044L -0.841797 0.729544ZM 1 29L 1 0.18975L -1 0.18975L -1 29L 1 29ZM 4.8335 28L 0 28L 0 30L 4.8335 30L 4.8335 28ZM 3.8335 13.507L 3.8335 29L 5.8335 29L 5.8335 13.507L 3.8335 13.507ZM 8.50966 12.4743L 4.82461 12.5071L 4.84239 14.507L 8.52745 14.4742L 8.50966 12.4743ZM 25.2021 -0.942012L 25.1616 -0.942012L 25.1616 1.05799L 25.2021 1.05799L 25.2021 -0.942012ZM 25.9813 0.63084L 26.0218 0.572851L 24.3825 -0.572851L 24.342 -0.514863L 25.9813 0.63084ZM 24.2021 0L 24.2021 0.0579882L 26.2021 0.0579882L 26.2021 0L 24.2021 0ZM 29.9824 -0.942012L 25.2021 -0.942012L 25.2021 1.05799L 29.9824 1.05799L 29.9824 -0.942012ZM 31 28.8646L 30.9824 0.057378L 28.9824 0.0585984L 29 28.8658L 31 28.8646ZM 25.2021 29.8652L 30 29.8652L 30 27.8652L 25.2021 27.8652L 25.2021 29.8652ZM 24.2021 0.0579882L 24.2021 28.8652L 26.2021 28.8652L 26.2021 0.0579882L 24.2021 0.0579882Z"/>
</defs>
</svg>
